# xmcd
#
# Track frame offsets:
#	150
#	10957
#	22809
#	31868
#	45646
#	60354
#	71729
#	87541
#	99536
#	109197
#	121404
#	132517
#	146184
#	159042
#
# Disc length: 2356 seconds
#
# Revision: 0
# Processed by: cddbd v1.5.1PL0 Copyright (c) Steve Scherf et al.
# Submitted via: dBpowerAMP V4.0
#
DISCID=b709320e
DTITLE=Harold Crosby and His Travelers - The Traditional Train
DYEAR=1900
DGENRE=Country
TTITLE0=I'll Win Your Heart Back Tomorrow
TTITLE1=She Has Never Turned Me Down
TTITLE2=Jean Liffitte
TTITLE3=Harvey's
TTITLE4=Gina
TTITLE5=Big Boss Man
TTITLE6=Folsom Prison Blues
TTITLE7=Who's Leaveing Who?
TTITLE8=Win A Few
TTITLE9=Let's Fall In Love Together
TTITLE10=My Big Truck
TTITLE11=Ole Slewfoot
TTITLE12=Born To Lose
TTITLE13=9 Poind Hammer
EXTD=Taveler Records
EXTT0=
EXTT1=
EXTT2=
EXTT3=
EXTT4=
EXTT5=
EXTT6=
EXTT7=
EXTT8=
EXTT9=
EXTT10=
EXTT11=
EXTT12=
EXTT13=
PLAYORDER=
